<mxfile host="app.diagrams.net" modified="2024-04-22T14:19:06.205Z" agent="Mozilla/5.0 (Windows NT 10.0; Win64; x64) AppleWebKit/537.36 (KHTML, like Gecko) Chrome/123.0.0.0 Safari/537.36" etag="FYbyr8YpivQ6rnCL-TIU" version="24.2.7" type="device">
  <diagram name="Страница — 1" id="gd2p0LwwwEh9Rn9DB6tW">
    <mxGraphModel dx="1562" dy="845" grid="1" gridSize="10" guides="1" tooltips="1" connect="1" arrows="1" fold="1" page="1" pageScale="1" pageWidth="827" pageHeight="1169" math="0" shadow="0">
      <root>
        <mxCell id="0" />
        <mxCell id="1" parent="0" />
        <mxCell id="q7XpWVVsSSVyQ-dYHZt1-1" value="" style="edgeStyle=orthogonalEdgeStyle;rounded=0;orthogonalLoop=1;jettySize=auto;html=1;" edge="1" parent="1" source="q7XpWVVsSSVyQ-dYHZt1-2" target="q7XpWVVsSSVyQ-dYHZt1-3">
          <mxGeometry relative="1" as="geometry" />
        </mxCell>
        <mxCell id="q7XpWVVsSSVyQ-dYHZt1-2" value="Начало" style="ellipse;whiteSpace=wrap;html=1;" vertex="1" parent="1">
          <mxGeometry x="320" y="50" width="120" height="60" as="geometry" />
        </mxCell>
        <mxCell id="q7XpWVVsSSVyQ-dYHZt1-3" value="Объявление переменной N" style="rounded=0;whiteSpace=wrap;html=1;" vertex="1" parent="1">
          <mxGeometry x="320" y="130" width="120" height="60" as="geometry" />
        </mxCell>
        <mxCell id="q7XpWVVsSSVyQ-dYHZt1-4" value="" style="edgeStyle=orthogonalEdgeStyle;rounded=0;orthogonalLoop=1;jettySize=auto;html=1;" edge="1" parent="1" source="q7XpWVVsSSVyQ-dYHZt1-5" target="q7XpWVVsSSVyQ-dYHZt1-7">
          <mxGeometry relative="1" as="geometry" />
        </mxCell>
        <mxCell id="q7XpWVVsSSVyQ-dYHZt1-5" value="Объявление переменной A" style="rounded=0;whiteSpace=wrap;html=1;" vertex="1" parent="1">
          <mxGeometry x="320" y="210" width="120" height="60" as="geometry" />
        </mxCell>
        <mxCell id="q7XpWVVsSSVyQ-dYHZt1-6" value="" style="edgeStyle=orthogonalEdgeStyle;rounded=0;orthogonalLoop=1;jettySize=auto;html=1;" edge="1" parent="1" source="q7XpWVVsSSVyQ-dYHZt1-7" target="q7XpWVVsSSVyQ-dYHZt1-9">
          <mxGeometry relative="1" as="geometry" />
        </mxCell>
        <mxCell id="q7XpWVVsSSVyQ-dYHZt1-7" value="Вызов функункции" style="rounded=0;whiteSpace=wrap;html=1;" vertex="1" parent="1">
          <mxGeometry x="320" y="290" width="120" height="60" as="geometry" />
        </mxCell>
        <mxCell id="q7XpWVVsSSVyQ-dYHZt1-8" value="" style="edgeStyle=orthogonalEdgeStyle;rounded=0;orthogonalLoop=1;jettySize=auto;html=1;" edge="1" parent="1" source="q7XpWVVsSSVyQ-dYHZt1-9" target="q7XpWVVsSSVyQ-dYHZt1-10">
          <mxGeometry relative="1" as="geometry" />
        </mxCell>
        <mxCell id="q7XpWVVsSSVyQ-dYHZt1-9" value="Объявление переменных summ, step" style="rounded=0;whiteSpace=wrap;html=1;" vertex="1" parent="1">
          <mxGeometry x="320" y="370" width="120" height="60" as="geometry" />
        </mxCell>
        <mxCell id="q7XpWVVsSSVyQ-dYHZt1-10" value="&lt;font style=&quot;font-size: 14px;&quot;&gt;for(i &amp;lt;= N)&lt;/font&gt;" style="rhombus;whiteSpace=wrap;html=1;" vertex="1" parent="1">
          <mxGeometry x="260" y="450" width="240" height="120" as="geometry" />
        </mxCell>
        <mxCell id="q7XpWVVsSSVyQ-dYHZt1-13" value="" style="endArrow=classic;html=1;rounded=0;exitX=0;exitY=0.5;exitDx=0;exitDy=0;entryX=0.5;entryY=0;entryDx=0;entryDy=0;" edge="1" parent="1" source="q7XpWVVsSSVyQ-dYHZt1-10">
          <mxGeometry width="50" height="50" relative="1" as="geometry">
            <mxPoint x="-10" y="320" as="sourcePoint" />
            <mxPoint x="160" y="570" as="targetPoint" />
            <Array as="points">
              <mxPoint x="160" y="510" />
            </Array>
          </mxGeometry>
        </mxCell>
        <mxCell id="q7XpWVVsSSVyQ-dYHZt1-16" value="" style="endArrow=classic;html=1;rounded=0;exitX=1;exitY=0.25;exitDx=0;exitDy=0;entryX=0;entryY=0.5;entryDx=0;entryDy=0;" edge="1" parent="1" source="q7XpWVVsSSVyQ-dYHZt1-23" target="q7XpWVVsSSVyQ-dYHZt1-25">
          <mxGeometry width="50" height="50" relative="1" as="geometry">
            <mxPoint x="430" y="627.5" as="sourcePoint" />
            <mxPoint x="540" y="628" as="targetPoint" />
            <Array as="points">
              <mxPoint x="450" y="640" />
              <mxPoint x="450" y="628" />
            </Array>
          </mxGeometry>
        </mxCell>
        <mxCell id="q7XpWVVsSSVyQ-dYHZt1-17" value="" style="endArrow=classic;html=1;rounded=0;exitX=1;exitY=0.5;exitDx=0;exitDy=0;" edge="1" parent="1" source="q7XpWVVsSSVyQ-dYHZt1-10" target="q7XpWVVsSSVyQ-dYHZt1-25">
          <mxGeometry width="50" height="50" relative="1" as="geometry">
            <mxPoint x="600" y="480" as="sourcePoint" />
            <mxPoint x="590" y="598" as="targetPoint" />
            <Array as="points">
              <mxPoint x="600" y="510" />
            </Array>
          </mxGeometry>
        </mxCell>
        <mxCell id="q7XpWVVsSSVyQ-dYHZt1-18" value="Да" style="text;html=1;align=center;verticalAlign=middle;resizable=0;points=[];autosize=1;strokeColor=none;fillColor=none;" vertex="1" parent="1">
          <mxGeometry x="170" y="488" width="40" height="30" as="geometry" />
        </mxCell>
        <mxCell id="q7XpWVVsSSVyQ-dYHZt1-19" value="Нет" style="text;html=1;align=center;verticalAlign=middle;resizable=0;points=[];autosize=1;strokeColor=none;fillColor=none;" vertex="1" parent="1">
          <mxGeometry x="520" y="488" width="40" height="30" as="geometry" />
        </mxCell>
        <mxCell id="q7XpWVVsSSVyQ-dYHZt1-21" value="" style="endArrow=classic;html=1;rounded=0;exitX=0.5;exitY=1;exitDx=0;exitDy=0;entryX=0.5;entryY=0;entryDx=0;entryDy=0;" edge="1" parent="1">
          <mxGeometry width="50" height="50" relative="1" as="geometry">
            <mxPoint x="590" y="658" as="sourcePoint" />
            <mxPoint x="590" y="685" as="targetPoint" />
          </mxGeometry>
        </mxCell>
        <mxCell id="q7XpWVVsSSVyQ-dYHZt1-22" value="сумма += степень" style="rounded=0;whiteSpace=wrap;html=1;" vertex="1" parent="1">
          <mxGeometry x="100" y="570" width="120" height="60" as="geometry" />
        </mxCell>
        <mxCell id="q7XpWVVsSSVyQ-dYHZt1-23" value="степень *= A" style="rounded=0;whiteSpace=wrap;html=1;" vertex="1" parent="1">
          <mxGeometry x="240" y="625" width="120" height="60" as="geometry" />
        </mxCell>
        <mxCell id="q7XpWVVsSSVyQ-dYHZt1-24" value="" style="endArrow=classic;html=1;rounded=0;exitX=0.5;exitY=1;exitDx=0;exitDy=0;entryX=0;entryY=0.5;entryDx=0;entryDy=0;" edge="1" parent="1" source="q7XpWVVsSSVyQ-dYHZt1-22" target="q7XpWVVsSSVyQ-dYHZt1-23">
          <mxGeometry width="50" height="50" relative="1" as="geometry">
            <mxPoint x="40" y="550" as="sourcePoint" />
            <mxPoint x="90" y="500" as="targetPoint" />
            <Array as="points">
              <mxPoint x="160" y="655" />
            </Array>
          </mxGeometry>
        </mxCell>
        <mxCell id="q7XpWVVsSSVyQ-dYHZt1-25" value="Возврат суммы" style="rounded=0;whiteSpace=wrap;html=1;" vertex="1" parent="1">
          <mxGeometry x="540" y="600" width="120" height="60" as="geometry" />
        </mxCell>
        <mxCell id="q7XpWVVsSSVyQ-dYHZt1-26" value="Вывод результата работы функции" style="shape=parallelogram;perimeter=parallelogramPerimeter;whiteSpace=wrap;html=1;fixedSize=1;" vertex="1" parent="1">
          <mxGeometry x="530" y="685" width="140" height="60" as="geometry" />
        </mxCell>
        <mxCell id="q7XpWVVsSSVyQ-dYHZt1-27" value="Конец" style="ellipse;whiteSpace=wrap;html=1;" vertex="1" parent="1">
          <mxGeometry x="354" y="700" width="120" height="80" as="geometry" />
        </mxCell>
        <mxCell id="q7XpWVVsSSVyQ-dYHZt1-28" value="" style="endArrow=classic;html=1;rounded=0;exitX=0;exitY=0.5;exitDx=0;exitDy=0;entryX=1;entryY=0.5;entryDx=0;entryDy=0;" edge="1" parent="1" source="q7XpWVVsSSVyQ-dYHZt1-26" target="q7XpWVVsSSVyQ-dYHZt1-27">
          <mxGeometry width="50" height="50" relative="1" as="geometry">
            <mxPoint x="540" y="830" as="sourcePoint" />
            <mxPoint x="590" y="780" as="targetPoint" />
            <Array as="points">
              <mxPoint x="510" y="715" />
              <mxPoint x="510" y="740" />
            </Array>
          </mxGeometry>
        </mxCell>
      </root>
    </mxGraphModel>
  </diagram>
</mxfile>
